<svg xmlns="http://www.w3.org/2000/svg" width="20" height="20"><g fill="#6D6E70"><path d="M6.834 19.5a2.379 2.379 0 0 1-2.376-2.375 2.378 2.378 0 0 1 2.376-2.375 2.378 2.378 0 0 1 2.375 2.375A2.378 2.378 0 0 1 6.834 19.5zm0-3.167a.793.793 0 1 0 .001 1.585.793.793 0 0 0-.001-1.585zM16.334 19.5a2.378 2.378 0 0 1-2.375-2.375 2.377 2.377 0 0 1 2.375-2.375 2.377 2.377 0 0 1 2.374 2.375 2.378 2.378 0 0 1-2.374 2.375zm0-3.167a.793.793 0 1 0 .001 1.585.793.793 0 0 0-.001-1.585zM15.826 13.959H7.428a2.36 2.36 0 0 1-2.369-2.067L3.857 2.773a.797.797 0 0 0-.785-.69h-1.78a.792.792 0 1 1 0-1.583h1.781a2.382 2.382 0 0 1 2.353 2.066l.25 1.892h13.033a.792.792 0 0 1 .776.947l-1.329 6.643a2.376 2.376 0 0 1-2.33 1.911zm-.03-1.584c.409 0 .731-.261.807-.637l1.139-5.696H5.884l.745 5.643c.052.395.388.69.784.69h8.383z"/></g></svg>